# AST/ASF file generated using VICON BodyLanguage
# -----------------------------------------------
:version 1.10
:name VICON
:units
  mass 1.0
  length 0.45
  angle deg
:documentation
   .ast/.asf automatically generated from VICON data using
   VICON BodyBuilder and BodyLanguage model FoxedUp or BRILLIANT.MOD
:root
   order TX TY TZ RX RY RZ
   axis XYZ
   position 0 0 0  
   orientation 0 0 0 
:bonedata
  begin
     id 1 
     name lhipjoint
     direction 0.606768 -0.715223 0.346827 
     length 2.41543 
     axis 0 0 0  XYZ
  end
  begin
     id 2 
     name lfemur
     direction 0.34202 -0.939693 0  
     length 7.2778  
     axis 0 0 20  XYZ
    dof rx ry rz
    limits (-160.0 20.0)
           (-70.0 70.0)
           (-60.0 70.0)
  end
  begin
     id 3 
     name ltibia
     direction 0.34202 -0.939693 0   
     length 7.61811   
     axis 0 0 20   XYZ
    dof rx
    limits (-10.0 170.0)
  end
  begin
     id 4 
     name lfoot
     direction 0.0823924 -0.226371 0.97055   
     length 2.33618   
     axis -90 7.62852e-016 20   XYZ
    dof rx rz
    limits (-45.0 90.0)
           (-70.0 20.0)
  end
  begin
     id 5 
     name ltoes
     direction 1.53554e-011 -4.21934e-011 1   
     length 1.17015   
     axis -90 7.62852e-016 20   XYZ
    dof rx
    limits (-90.0 20.0)
  end
  begin
     id 6 
     name rhipjoint
     direction -0.6077 -0.714582 0.346516   
     length 2.4176  
     axis 0 0 0  XYZ 
  end
  begin
     id 7 
     name rfemur
     direction -0.34202 -0.939693 0   
     length 7.28127   
     axis 0 0 -20   XYZ
    dof rx ry rz
    limits (-160.0 20.0)
           (-70.0 70.0)
           (-70.0 60.0)
  end
  begin
     id 8 
     name rtibia
     direction -0.34202 -0.939693 0   
     length 7.77648   
     axis 0 0 -20   XYZ
    dof rx
    limits (-10.0 170.0)
 end
 begin
     id 9 
     name rfoot
     direction -0.0809463 -0.222398 0.97159   
     length 2.37533  
     axis -90 -7.62852e-016 -20   XYZ
    dof rx rz
    limits (-45.0 90.0)
           (-20.0 70.0)
  end
  begin
     id 10 
     name rtoes
     direction -1.53568e-011 -4.21714e-011 1   
     length 1.18972   
     axis -90 -7.62852e-016 -20   XYZ
    dof rx
    limits (-90.0 20.0)
  end
  begin
     id 11 
     name lowerback
     direction 0.010968 0.991932 -0.126297   
     length 2.21698   
     axis 0 0 0   XYZ
    dof rx ry rz
    limits (-20.0 45.0)
           (-30.0 30.0)
           (-30.0 30.0)
  end
  begin
     id 12 
     name upperback
     direction 0.0167007 0.997503 -0.0686276   
     length 2.22371   
     axis 0 0 0   XYZ
    dof rx ry rz
    limits (-20.0 45.0)
           (-30.0 30.0)
           (-30.0 30.0)
  end
  begin
     id 13 
     name thorax
     direction 0.0111721 0.999885 -0.0102878   
     length 2.25242   
     axis 0 0 0   XYZ
    dof rx ry rz
    limits (-20.0 45.0)
           (-30.0 30.0)
           (-30.0 30.0)
  end
  begin
     id 14 
     name lowerneck
     direction -0.0120265 0.990428 0.137508   
     length 1.57674   
     axis 0 0 0   XYZ
    dof rx ry rz
    limits (-20.0 45.0)
           (-30.0 30.0)
           (-30.0 30.0)
  end
  begin
     id 15 
     name upperneck
     direction 0.0175669 0.998907 0.0433089   
     length 1.5618   
     axis 0 0 0   XYZ
    dof rx ry rz
    limits (-20.0 45.0)
           (-30.0 30.0)
           (-30.0 30.0)
  end
  begin
     id 16
     name head
     direction 0.00754609 0.99997 0.00185367  
     length 1.60579  
     axis 0 0 0   XYZ
    dof rx ry rz
    limits (-20.0 45.0)
           (-30.0 30.0)
           (-30.0 30.0)
  end
  begin
     id 17 
     name lclavicle
     direction 0.885866 0.429166 -0.176231  
     length 3.44967  
     axis 0 0 0   XYZ
    dof ry rz
    limits (-20.0 10.0)
           (0.0 20.0)
  end
  begin
     id 18 
     name lhumerus
     direction 1 -4.48973e-011 -1.90255e-027   
     length 5.20607   
     axis 180 -30 -90   XYZ
    dof rx ry rz
    limits (-60.0 90.0)
           (-90.0 90.0)
           (-90.0 90.0)
  end
  begin
     id 19
     name lradius
     direction 1 -4.48956e-011 9.87925e-027   
     length 3.39961   
     axis 180 -30 -90   XYZ
    dof rx
    limits (-10.0 170.0)
  end
  begin
     id 20
     name lwrist
     direction 1 -4.48985e-011 1.73247e-026   
     length 1.6998   
     axis -9.60847e-015 90 90   XYZ
    dof ry
    limits (-180.0 0.0)
 end
  begin
     id 21 
     name lhand
     direction 1 -4.48798e-011 3.46119e-026   
     length 0.519693   
     axis -2.21073e-014 90 90   XYZ
    dof rx rz
    limits (-90.0 90.0)
           (-45.0 45.0)
  end
  begin
     id 22 
     name lfingers
     direction 1 -4.48938e-011 6.92797e-026   
     length 0.41899   
     axis -4.42155e-014 90 90   XYZ
    dof rx
    limits (0.0 90.0)
  end
  begin
     id 23
     name lthumb
     direction 0.707107 -6.34952e-011 0.707107   
     length 0.601588   
     axis -90 45 6.0103e-014   XYZ
    dof rx rz
    limits (-45.0 45.0)
           (-45.0 45.0)
  end
  begin
     id 24 
     name rclavicle
     direction -0.866736 0.456792 -0.200276   
     length 3.45032  
     axis 0 0 0   XYZ 
    dof ry rz
    limits (-10.0 20.0)
           (-20.0 0.0)
  end
  begin
     id 25 
     name rhumerus
     direction -1 -4.4897e-011 8.65094e-028  
     length 5.32214   
     axis 180 30 90   XYZ
    dof rx ry rz
    limits (-90.0 60.0)
           (-90.0 90.0)
           (-90.0 90.0)
  end
  begin
     id 26 
     name rradius
     direction -1 -4.48987e-011 1.08427e-026   
     length 3.51208   
     axis 180 30 90   XYZ
    dof rx
    limits (-10.0 170.0)
  end
  begin
     id 27 
     name rwrist
     direction -1 -4.48961e-011 1.73222e-026   
     length 1.75604   
     axis -9.60847e-015 -90 -90   XYZ
    dof ry
    limits (-180.0 0.0)
  end
  begin
     id 28
     name rhand
     direction -1 -4.48895e-011 3.46314e-026   
     length 0.586681   
     axis -2.21073e-014 -90 -90   XYZ
    dof rx rz
    limits (-90.0 90.0)
           (-45.0 45.0)
  end
  begin
     id 29
     name rfingers
     direction -1 -4.48968e-011 6.92916e-026   
     length 0.472997   
     axis -4.42155e-014 -90 -90   XYZ
    dof rx
    limits (0.0 90.0)
  end
  begin
     id 30
     name rthumb
     direction -0.707107 -6.34848e-011 0.707107   
     length 0.679133   
     axis -90 -45 -6.0103e-014   XYZ
    dof rx rz
    limits (-45.0 45.0)
           (-45.0 45.0)
  end
:hierarchy
  begin
    root lhipjoint rhipjoint lowerback
    lhipjoint lfemur
    lfemur ltibia
    ltibia lfoot
    lfoot ltoes
    rhipjoint rfemur
    rfemur rtibia
    rtibia rfoot
    rfoot rtoes
    lowerback upperback
    upperback thorax
    thorax lowerneck lclavicle rclavicle
    lowerneck upperneck
    upperneck head
    lclavicle lhumerus
    lhumerus lradius
    lradius lwrist
    lwrist lhand lthumb
    lhand lfingers
    rclavicle rhumerus
    rhumerus rradius
    rradius rwrist
    rwrist rhand rthumb
    rhand rfingers
  end

#!OML:ASF H:\Dans Jumps\Project 1\Capture day 1\Session 1\subject.ASF
:FULLY-SPECIFIED
:DEGREES
35
root 0.515783 17.5447 -14.1052 6.17142 -1.41048 -1.6359
lowerback -2.10116 -0.30251 0.0190527
upperback 3.19529 -0.468612 1.57378
thorax 4.48606 -0.261918 1.58626
lowerneck -13.7369 -0.584236 -2.92724
upperneck 27.5086 -0.922852 2.89563
head 11.2009 -0.370777 1.43382
rclavicle -7.45443e-016 1.78906e-015
rhumerus -22.5812 -18.6054 -79.5059
rradius 22.3392
rwrist 36.0132
rhand -17.4007 -26.0153
rfingers 7.12502
rthumb 8.8487 -55.8098
lclavicle -7.45443e-016 1.78906e-015
lhumerus -20.1751 5.9721 85.1268
lradius 16.8098
lwrist -2.74708
lhand -23.7653 -2.91499
lfingers 7.12502
lthumb 2.704 27.0476
rfemur -12.9112 -2.06211 19.1855
rtibia 20.9493
rfoot -13.2823 -2.84181
rtoes 6.66989
lfemur -12.3214 7.44586 -17.9707
ltibia 19.6552
lfoot -11.2928 5.15015
ltoes -0.296815
36
root 0.514358 17.5444 -14.1043 6.16608 -1.40382 -1.63743
lowerback -2.10327 -0.299985 0.0211977
upperback 3.19919 -0.465449 1.57488
thorax 4.49124 -0.260326 1.58638
lowerneck -13.7505 -0.583771 -2.92032
upperneck 27.5336 -0.922497 2.89028
head 11.2131 -0.370492 1.43106
rclavicle 4.12478e-015 7.95139e-015
rhumerus -22.5779 -18.6225 -79.5084
rradius 22.3332
rwrist 36.0192
rhand -17.4007 -26.0058
rfingers 7.12502
rthumb 8.84873 -55.8003
lclavicle 4.12478e-015 7.95139e-015
lhumerus -20.1793 5.99062 85.1152
lradius 16.7981
lwrist -2.75849
lhand -23.7682 -2.9284
lfingers 7.12502
lthumb 2.7012 27.0342
rfemur -12.9026 -2.06349 19.1923
rtibia 20.9544
rfoot -13.2897 -2.84552
rtoes 6.69019
lfemur -12.3183 7.43933 -17.963
ltibia 19.6679
lfoot -11.3004 5.15647
ltoes -0.314345
37
root 0.512871 17.5442 -14.1034 6.16151 -1.39878 -1.64134
lowerback -2.10599 -0.297218 0.0241207
upperback 3.20305 -0.462035 1.57678
thorax 4.4967 -0.258598 1.58691
lowerneck -13.765 -0.579817 -2.90567
upperneck 27.5593 -0.917555 2.87934
head 11.2255 -0.368011 1.42556
rclavicle -1.2921e-015 6.36111e-015
rhumerus -22.5756 -18.6368 -79.5122
rradius 22.3277
rwrist 36.0228
rhand -17.4026 -25.9962
rfingers 7.12502
rthumb 8.84682 -55.7908
lclavicle -1.2921e-015 6.36111e-015
lhumerus -20.1842 6.00657 85.1043
lradius 16.7886
lwrist -2.76444
lhand -23.7693 -2.93682
lfingers 7.12502
lthumb 2.70017 27.0258
rfemur -12.8944 -2.06132 19.202
rtibia 20.9577
rfoot -13.2961 -2.85099
rtoes 6.70745
lfemur -12.3166 7.43248 -17.9524
ltibia 19.6822
lfoot -11.308 5.1642
ltoes -0.323446
38
root 0.511303 17.544 -14.1026 6.15748 -1.39305 -1.64664
lowerback -2.10787 -0.294551 0.0269707
upperback 3.20645 -0.458784 1.57988
thorax 4.50123 -0.256971 1.58871
lowerneck -13.7771 -0.573443 -2.88741
upperneck 27.5849 -0.909159 2.86493
head 11.2372 -0.364031 1.41863
rclavicle -1.68967e-015 -6.55989e-015
rhumerus -22.5754 -18.6475 -79.5157
rradius 22.3232
rwrist 36.0224
rhand -17.4054 -25.9929
rfingers 7.12502
rthumb 8.84412 -55.7875
lclavicle -1.68967e-015 -6.55989e-015
lhumerus -20.1887 6.02386 85.0945
lradius 16.7791
lwrist -2.77081
lhand -23.7648 -2.92735
lfingers 7.12502
lthumb 2.70448 27.0352
rfemur -12.8863 -2.05634 19.2137
rtibia 20.9593
rfoot -13.2999 -2.86089
rtoes 6.71171
lfemur -12.3171 7.42391 -17.9398
ltibia 19.6986
lfoot -11.3171 5.17156
ltoes -0.320997
39
root 0.509693 17.5438 -14.1019 6.15492 -1.38629 -1.65277
lowerback -2.11017 -0.292234 0.029782
upperback 3.20942 -0.456008 1.58324
thorax 4.50557 -0.255585 1.59077
lowerneck -13.7851 -0.567032 -2.87082
upperneck 27.6065 -0.900757 2.85208
head 11.2467 -0.360048 1.41249
rclavicle -4.22417e-015 2.78299e-015
rhumerus -22.5761 -18.6537 -79.5207
rradius 22.3193
rwrist 36.0188
rhand -17.4121 -25.9881
rfingers 7.12502
rthumb 8.8377 -55.783
lclavicle -4.22417e-015 2.78299e-015
lhumerus -20.1925 6.04468 85.0841
lradius 16.77
lwrist -2.77857
lhand -23.7497 -2.9027
lfingers 7.12502
lthumb 2.71912 27.0597
rfemur -12.8799 -2.05145 19.2265
rtibia 20.9602
rfoot -13.3034 -2.87047
rtoes 6.72101
lfemur -12.3211 7.41688 -17.9265
ltibia 19.7158
lfoot -11.3252 5.17644
ltoes -0.312153
40
root 0.508032 17.5436 -14.1014 6.15345 -1.3757 -1.6604
lowerback -2.11181 -0.290998 0.0341545
upperback 3.21169 -0.454743 1.58701
thorax 4.50884 -0.254897 1.5923
lowerneck -13.7917 -0.561043 -2.85511
upperneck 27.6271 -0.892483 2.83836
head 11.2554 -0.356327 1.40616
rclavicle 1.68967e-015 1.03368e-014
rhumerus -22.5787 -18.6626 -79.5254
rradius 22.3158
rwrist 36.0196
rhand -17.418 -25.9791
rfingers 7.12502
rthumb 8.83194 -55.7743
lclavicle 1.68967e-015 1.03368e-014
lhumerus -20.1966 6.07431 85.0721
lradius 16.7621
lwrist -2.7958
lhand -23.7294 -2.87516
lfingers 7.12502
lthumb 2.73868 27.087
rfemur -12.8748 -2.04736 19.2413
rtibia 20.9612
rfoot -13.3064 -2.88269
rtoes 6.72928
lfemur -12.3279 7.41152 -17.9114
ltibia 19.7331
lfoot -11.3331 5.17576
ltoes -0.302678
41
root 0.506412 17.5433 -14.1009 6.15317 -1.36361 -1.66604
lowerback -2.11407 -0.289964 0.0385213
upperback 3.21389 -0.453681 1.589
thorax 4.51237 -0.254276 1.59196
lowerneck -13.7943 -0.555897 -2.83525
upperneck 27.642 -0.885135 2.81996
head 11.2612 -0.353182 1.39719
rclavicle -9.74045e-015 5.56597e-015
rhumerus -22.5808 -18.677 -79.5309
rradius 22.3098
rwrist 36.0252
rhand -17.4294 -25.9626
rfingers 7.12502
rthumb 8.82099 -55.7582
lclavicle -9.74045e-015 5.56597e-015
lhumerus -20.1987 6.10349 85.0589
lradius 16.7546
lwrist -2.81454
lhand -23.7098 -2.84083
lfingers 7.12502
lthumb 2.75763 27.1211
rfemur -12.8719 -2.04697 19.2537
rtibia 20.9633
rfoot -13.3094 -2.8927
rtoes 6.7339
lfemur -12.3366 7.40679 -17.899
ltibia 19.749
lfoot -11.3391 5.17335
ltoes -0.302856
42
root 0.504858 17.5431 -14.1005 6.15411 -1.34999 -1.67011
lowerback -2.11617 -0.289367 0.0420777
upperback 3.2157 -0.45313 1.59027
thorax 4.51541 -0.253921 1.59132
lowerneck -13.7947 -0.553302 -2.82319
upperneck 27.6547 -0.880798 2.8064
head 11.2659 -0.351624 1.39089
rclavicle 2.48481e-015 5.76476e-015
rhumerus -22.584 -18.6974 -79.5359
rradius 22.3036
rwrist 36.0418
rhand -17.4396 -25.9462
rfingers 7.12502
rthumb 8.81113 -55.7422
lclavicle 2.48481e-015 5.76476e-015
lhumerus -20.2003 6.13215 85.0459
lradius 16.7493
lwrist -2.83384
lhand -23.6988 -2.81063
lfingers 7.12502
lthumb 2.76826 27.1512
rfemur -12.8713 -2.04932 19.264
rtibia 20.9666
rfoot -13.3126 -2.90065
rtoes 6.74288
lfemur -12.3468 7.40139 -17.8886
ltibia 19.7636
lfoot -11.3438 5.16891
ltoes -0.303354
43
root 0.503365 17.5429 -14.1 6.15496 -1.33793 -1.67244
lowerback -2.11757 -0.289373 0.0438027
upperback 3.21734 -0.453285 1.5912
thorax 4.51793 -0.253969 1.5913
lowerneck -13.7957 -0.551128 -2.81574
upperneck 27.6687 -0.876399 2.7947
head 11.2712 -0.350296 1.38609
rclavicle 4.37326e-015 -9.34288e-015
rhumerus -22.5879 -18.7161 -79.5415
rradius 22.2975
rwrist 36.058
rhand -17.4437 -25.9319
rfingers 7.12502
rthumb 8.80716 -55.7281
lclavicle 4.37326e-015 -9.34288e-015
lhumerus -20.2025 6.15763 85.0338
lradius 16.7467
lwrist -2.84659
lhand -23.7016 -2.79824
lfingers 7.12502
lthumb 2.76556 27.1636
rfemur -12.8715 -2.05252 19.2718
rtibia 20.971
rfoot -13.3167 -2.90478
rtoes 6.75863
lfemur -12.3556 7.39599 -17.8807
ltibia 19.7764
lfoot -11.347 5.166
ltoes -0.315388
44
root 0.501944 17.5427 -14.0998 6.15718 -1.32536 -1.67515
lowerback -2.11816 -0.289602 0.0466173
upperback 3.21778 -0.453751 1.59196
thorax 4.51871 -0.254121 1.59048
lowerneck -13.7944 -0.549876 -2.8145
upperneck 27.6845 -0.872775 2.78644
head 11.2769 -0.349564 1.38354
rclavicle 5.46658e-016 -1.59028e-015
rhumerus -22.5932 -18.7362 -79.547
rradius 22.2908
rwrist 36.0755
rhand -17.4442 -25.9216
rfingers 7.12502
rthumb 8.80672 -55.7178
lclavicle 5.46658e-016 -1.59028e-015
lhumerus -20.205 6.17915 85.0224
lradius 16.7431
lwrist -2.85821
lhand -23.7085 -2.79626
lfingers 7.12502
lthumb 2.75886 27.1656
rfemur -12.8739 -2.05441 19.2798
rtibia 20.9761
rfoot -13.3207 -2.91048
rtoes 6.77454
lfemur -12.3658 7.38909 -17.8726
ltibia 19.7884
lfoot -11.3488 5.16396
ltoes -0.333712
45
root 0.500515 17.5426 -14.0997 6.15962 -1.31322 -1.6799
lowerback -2.11674 -0.290323 0.0500542
upperback 3.21755 -0.45491 1.59365
thorax 4.51769 -0.254607 1.59023
lowerneck -13.7972 -0.549465 -2.81824
upperneck 27.7059 -0.869952 2.78133
head 11.2855 -0.349321 1.38296
rclavicle 4.87022e-015 -1.74931e-014
rhumerus -22.5996 -18.7508 -79.5536
rradius 22.2855
rwrist 36.0891
rhand -17.4372 -25.9244
rfingers 7.12502
rthumb 8.81346 -55.7203
lclavicle 4.87022e-015 -1.74931e-014
lhumerus -20.2089 6.19562 85.0126
lradius 16.7421
lwrist -2.863
lhand -23.7221 -2.80458
lfingers 7.12502
lthumb 2.74577 27.1575
rfemur -12.8773 -2.05455 19.2903
rtibia 20.9815
rfoot -13.3247 -2.91749
rtoes 6.79115
lfemur -12.3766 7.38129 -17.862
ltibia 19.8004
lfoot -11.3497 5.16291
ltoes -0.348763
46
root 0.499139 17.5424 -14.0998 6.16155 -1.30156 -1.68487
lowerback -2.11464 -0.290351 0.0546925
upperback 3.21782 -0.455163 1.59454
thorax 4.51675 -0.254587 1.58854
lowerneck -13.7989 -0.550261 -2.82569
upperneck 27.7291 -0.868659 2.77872
head 11.2947 -0.349859 1.38376
rclavicle -2.33572e-015 1.61016e-014
rhumerus -22.6076 -18.7649 -79.5606
rradius 22.2839
rwrist 36.0985
rhand -17.4277 -25.9335
rfingers 7.12502
rthumb 8.82261 -55.7291
lclavicle -2.33572e-015 1.61016e-014
lhumerus -20.2116 6.206 85.0038
lradius 16.7418
lwrist -2.8647
lhand -23.7298 -2.8075
lfingers 7.12502
lthumb 2.73827 27.1547
rfemur -12.8805 -2.05414 19.3012
rtibia 20.9872
rfoot -13.3288 -2.9268
rtoes 6.79605
lfemur -12.3868 7.37288 -17.8513
ltibia 19.8127
lfoot -11.3513 5.16316
ltoes -0.361898
